<?xml version="1.0" standalone="no"?>
<!DOCTYPE svg PUBLIC "-//W3C//DTD SVG 20010904//EN"
 "http://www.w3.org/TR/2001/REC-SVG-20010904/DTD/svg10.dtd">
<svg version="1.0" xmlns="http://www.w3.org/2000/svg"
 width="1259.000000pt" height="457.000000pt" viewBox="0 0 1259.000000 457.000000"
 preserveAspectRatio="xMidYMid meet">

<g transform="translate(0.000000,457.000000) scale(0.100000,-0.100000)"
fill="#000000" stroke="none">
<path d="M1120 3776 c-152 -43 -263 -167 -290 -326 -8 -46 -10 -400 -8 -1190
l3 -1125 24 -55 c50 -113 122 -185 232 -232 l54 -23 1180 -3 c854 -2 1196 0
1240 8 131 26 249 120 297 238 l23 57 0 1181 0 1180 -38 76 c-58 119 -156 195
-279 218 -81 16 -2382 11 -2438 -4z m2454 -147 c38 -14 68 -34 95 -65 73 -83
71 -62 71 -772 l0 -634 -27 6 c-63 12 -152 25 -213 31 -36 3 -77 8 -92 11
l-28 6 0 409 0 409 -215 0 -215 0 0 210 0 210 -242 1 c-134 0 -260 1 -281 2
l-37 2 0 -592 0 -593 -119 0 -118 0 -6 68 c-4 37 -7 100 -7 141 0 71 1 73 22
68 12 -4 32 -4 44 -1 24 6 46 46 38 68 -3 8 -44 49 -92 92 -113 100 -250 225
-321 291 -37 35 -65 52 -81 52 -18 0 -57 -30 -140 -110 -63 -61 -163 -156
-222 -212 -87 -81 -108 -106 -108 -129 0 -32 38 -63 67 -54 34 11 36 6 36 -64
-1 -38 -2 -119 -2 -179 l-1 -110 -57 -6 c-32 -4 -123 -18 -202 -31 -80 -13
-148 -24 -153 -24 -5 0 -7 294 -6 653 l3 652 29 63 c31 68 78 113 143 137 32
11 231 14 1210 14 1160 1 1173 1 1227 -20z m-949 -399 l0 -80 -47 0 -48 0 0
80 0 80 48 0 47 0 0 -80z m187 0 l3 -80 -47 0 -48 0 0 80 0 80 44 0 44 0 4
-80z m-2 -281 l0 -79 -45 0 -45 0 0 83 0 82 45 -3 45 -4 0 -79z m-185 1 l0
-80 -47 0 -46 0 -4 80 -3 80 50 0 50 0 0 -80z m424 -150 l-1 -80 -49 0 -49 0
0 80 0 80 50 0 49 0 0 -80z m181 0 l0 -80 -45 0 -45 0 0 80 0 80 45 0 45 0 0
-80z m-181 -285 l1 -85 -50 0 -50 0 0 85 0 85 49 0 49 0 1 -85z m181 0 l0 -85
-45 0 -45 0 0 85 0 85 45 0 45 0 0 -85z m-1360 -50 l0 -105 -110 0 -110 0 0
105 0 105 110 0 110 0 0 -105z m740 -439 c19 -3 94 -10 165 -16 179 -15 318
-35 535 -76 164 -32 402 -88 423 -101 4 -2 7 -83 7 -179 l0 -174 -37 16 c-270
119 -658 238 -925 284 -579 101 -1058 122 -1616 72 -106 -10 -195 -16 -197
-13 -8 8 -5 100 3 105 4 2 28 7 52 10 25 3 63 8 85 11 162 21 279 34 335 39
85 7 375 25 465 30 91 4 660 -2 705 -8z m-900 -345 c212 -20 235 -22 355 -41
473 -75 941 -230 1270 -419 155 -90 313 -196 304 -205 -2 -3 -29 -16 -58 -30
-53 -24 -59 -25 -317 -26 l-262 -1 -64 45 c-377 262 -908 452 -1433 511 -27 3
-68 8 -90 10 -22 3 -133 8 -247 12 l-208 6 0 73 0 73 48 3 c91 7 588 -1 702
-11z m-643 -325 c238 -42 509 -126 709 -221 127 -60 294 -155 294 -168 0 -4
-206 -7 -457 -5 -448 3 -459 3 -498 25 -54 29 -100 78 -125 135 -26 59 -40
248 -18 248 7 0 50 -7 95 -14z"/>
<path d="M4390 2985 l0 -475 95 0 95 0 0 390 0 390 195 0 195 0 0 -390 0 -390
94 0 94 0 0 475 0 475 -384 0 -384 0 0 -475z"/>
<path d="M7975 2985 l0 -475 92 0 93 0 -1 388 0 387 180 3 181 2 0 85 0 85
-272 0 -273 0 0 -475z"/>
<path d="M6358 3225 c-71 -18 -124 -51 -171 -106 -129 -151 -106 -464 43 -565
54 -37 152 -64 234 -64 166 0 283 74 334 212 19 51 25 204 11 268 -14 66 -58
147 -100 184 -76 70 -233 101 -351 71z m189 -165 c46 -28 75 -91 81 -175 6
-92 -10 -148 -57 -198 -34 -36 -44 -41 -93 -45 -75 -6 -120 16 -156 77 -24 41
-27 56 -27 141 0 110 19 159 75 198 44 29 131 31 177 2z"/>
<path d="M8763 3225 c-151 -42 -226 -127 -253 -288 -13 -74 -8 -138 17 -232
22 -80 101 -162 183 -191 80 -28 247 -26 312 3 92 42 160 127 182 228 11 52 9
168 -4 230 -26 125 -84 196 -190 236 -72 27 -180 33 -247 14z m184 -165 c48
-29 75 -90 80 -185 4 -73 2 -85 -24 -134 -33 -65 -65 -90 -121 -98 -67 -9
-126 19 -160 75 -24 42 -27 56 -27 142 0 111 19 161 74 197 45 30 132 32 178
3z"/>
<path d="M10357 3224 c-69 -16 -101 -33 -148 -76 -72 -66 -109 -166 -109 -294
0 -213 121 -350 318 -362 165 -9 282 43 348 154 25 43 56 176 49 210 -2 10 -6
42 -9 69 -8 83 -36 153 -84 206 -84 93 -221 128 -365 93z m183 -163 c55 -29
84 -97 85 -196 0 -67 -4 -89 -25 -129 -34 -67 -67 -89 -137 -94 -48 -3 -64 0
-93 20 -55 37 -80 97 -80 193 0 44 5 96 10 116 11 38 51 86 85 100 37 15 119
10 155 -10z"/>
<path d="M5610 3214 c-19 -8 -48 -25 -65 -38 l-31 -24 4 34 4 34 -91 0 -91 0
0 -490 0 -490 90 0 90 0 0 161 c0 142 2 159 15 146 32 -33 102 -50 182 -45 84
5 121 20 179 70 80 70 114 162 114 305 0 226 -104 353 -290 353 -44 -1 -89 -7
-110 -16z m113 -145 c65 -33 107 -112 107 -199 0 -60 -28 -138 -64 -174 -55
-57 -149 -72 -207 -33 l-34 23 -3 157 c-3 172 1 187 51 217 36 22 115 27 150
9z"/>
<path d="M9607 3215 c-21 -8 -51 -24 -67 -35 l-30 -21 0 30 0 31 -90 0 -90 0
0 -490 0 -490 90 0 90 0 0 162 c0 154 1 160 18 145 58 -53 203 -64 294 -23
111 50 175 155 185 304 8 127 -9 209 -61 285 -55 81 -109 109 -221 114 -53 2
-93 -2 -118 -12z m117 -149 c58 -24 106 -114 106 -199 0 -48 -32 -129 -66
-166 -59 -66 -171 -79 -228 -26 -26 24 -26 26 -26 177 1 162 1 165 54 206 34
26 108 30 160 8z"/>
<path d="M6940 2865 l0 -355 86 0 85 0 -4 234 c-3 129 -8 239 -11 245 -4 6 -4
11 1 10 4 0 22 -28 38 -62 17 -34 59 -114 94 -177 l63 -115 62 -3 62 -3 22 43
c12 24 55 104 94 179 l73 136 -4 -244 -3 -243 86 0 86 0 0 355 0 355 -99 0
-99 0 -49 -97 c-73 -146 -164 -296 -173 -287 -12 12 -172 311 -189 352 l-13
32 -104 0 -104 0 0 -355z"/>
<path d="M11030 3093 c0 -142 -10 -219 -41 -319 -23 -74 -71 -134 -108 -134
-20 0 -21 -4 -21 -150 l0 -150 75 0 75 0 0 85 0 85 230 0 230 0 0 -85 0 -85
80 0 80 0 0 165 0 165 -45 0 -45 0 0 275 0 275 -255 0 -255 0 0 -127z m330
-223 l0 -200 -126 0 -126 0 20 33 c27 44 52 163 59 275 l6 92 83 0 84 0 0
-200z"/>
<path d="M7495 2030 c-56 -8 -81 -25 -93 -60 -12 -32 -10 -34 29 -44 21 -5 30
-1 43 19 19 29 66 34 90 9 33 -33 6 -74 -50 -74 -31 0 -34 -2 -34 -30 0 -26 4
-30 26 -30 42 0 64 -17 64 -51 0 -21 -6 -32 -24 -40 -32 -15 -73 -4 -81 21 -4
12 -15 20 -28 20 -56 -1 -59 -40 -6 -85 25 -21 41 -25 91 -25 53 0 63 3 89 29
24 25 29 38 29 80 0 39 -4 53 -21 64 -20 15 -20 15 5 40 73 73 -11 175 -129
157z"/>
<path d="M4365 2020 c-2 -3 -3 -85 -3 -183 l0 -177 39 0 39 0 0 153 0 152 80
1 80 0 0 -153 0 -153 35 0 35 0 0 183 0 182 -151 0 c-83 1 -152 -2 -154 -5z"/>
<path d="M4788 2022 c-16 -3 -18 -20 -18 -183 l0 -179 35 0 35 0 0 70 0 70 59
0 c33 0 71 4 85 10 74 28 81 163 10 201 -22 11 -165 19 -206 11z m158 -66 c30
-8 37 -53 13 -77 -14 -14 -33 -19 -69 -19 l-50 0 0 53 0 53 43 -3 c23 -1 52
-5 63 -7z"/>
<path d="M5205 2017 c-138 -64 -120 -314 26 -355 133 -36 241 61 226 205 -6
61 -29 107 -70 136 -34 26 -138 34 -182 14z m125 -52 c37 -19 59 -62 61 -117
2 -84 -39 -133 -112 -133 -93 0 -141 139 -76 221 34 44 79 54 127 29z"/>
<path d="M5595 2016 c-2 -6 -5 -56 -7 -111 -4 -104 -28 -175 -63 -188 -11 -5
-15 -22 -15 -72 l0 -65 35 0 c34 0 35 1 35 40 l0 40 110 0 110 0 0 -40 0 -40
40 0 40 0 0 70 c0 68 -1 70 -25 70 l-25 0 0 153 0 152 -116 1 c-77 1 -117 -2
-119 -10z m165 -172 l0 -124 -71 0 c-64 0 -70 2 -64 18 6 14 31 101 34 117 1
3 1 30 1 60 l0 55 50 -1 50 -2 0 -123z"/>
<path d="M5996 1850 c-37 -97 -66 -180 -66 -183 0 -4 15 -7 34 -7 31 0 36 4
49 43 l14 42 73 0 73 0 15 -42 c12 -39 17 -43 48 -43 19 0 34 1 34 3 0 1 -29
83 -65 182 -36 98 -65 180 -65 182 0 1 -18 2 -39 1 l-40 -1 -65 -177z m129 30
c10 -30 20 -61 23 -67 3 -9 -10 -13 -48 -13 -38 0 -51 3 -47 13 2 6 13 40 23
74 10 35 21 59 25 55 4 -4 15 -32 24 -62z"/>
<path d="M6320 2026 c0 -3 25 -43 55 -90 30 -46 55 -87 55 -92 0 -4 -27 -47
-61 -96 l-60 -88 43 0 c43 0 43 1 91 75 62 98 77 98 77 0 l0 -75 35 0 35 0 0
80 c0 62 3 80 14 80 8 0 37 -36 65 -80 50 -78 51 -80 91 -80 l41 0 -34 53
c-19 28 -47 72 -64 96 l-30 44 53 84 c30 45 54 84 54 85 0 2 -16 3 -36 3 -34
0 -41 -5 -84 -69 -71 -101 -70 -101 -70 -10 l0 81 -35 -1 -35 -1 0 -77 c0 -56
-4 -78 -12 -78 -7 0 -34 34 -60 75 -38 60 -52 75 -72 75 -13 0 -31 3 -40 6 -9
3 -16 4 -16 0z"/>
<path d="M6958 2007 c-5 -10 -33 -84 -63 -165 -29 -81 -56 -155 -60 -165 -7
-16 -3 -18 30 -15 35 3 40 7 54 46 l15 42 72 0 71 0 13 -45 c12 -43 14 -45 50
-45 l37 0 -67 181 -67 182 -38 1 c-26 1 -40 -4 -47 -17z m92 -199 c0 -4 -22
-8 -50 -8 -27 0 -50 2 -50 4 0 2 10 30 21 63 12 32 23 65 26 73 4 13 53 -109
53 -132z"/>
<path d="M7740 1844 l0 -184 120 0 120 0 0 30 0 30 -85 0 -85 0 0 50 0 50 70
0 70 0 0 30 0 30 -70 0 -70 0 0 45 0 45 85 -4 85 -4 0 32 0 31 -120 1 -120 1
0 -183z"/>
<path d="M8080 1843 l0 -183 30 0 30 0 0 128 c1 146 0 145 73 10 58 -107 70
-106 139 14 l53 92 3 -122 3 -122 29 0 30 0 0 183 0 183 -32 -1 c-33 -1 -51
-25 -141 -186 l-18 -33 -28 49 c-98 176 -93 169 -134 170 l-37 0 0 -182z"/>
<path d="M8580 1845 l0 -185 120 0 120 0 0 30 0 30 -85 0 -85 0 0 50 0 50 70
0 70 0 0 30 0 30 -70 0 -70 0 0 45 0 45 85 -4 85 -3 0 31 0 31 -120 2 -120 2
0 -184z"/>
<path d="M8960 2026 c-1 -1 -2 -60 -3 -131 -2 -106 -5 -136 -20 -158 -9 -15
-24 -27 -32 -27 -10 0 -15 -10 -15 -30 0 -28 2 -29 33 -23 74 13 97 65 97 214
l0 96 63 -1 62 -1 3 -152 3 -153 29 0 30 0 0 183 0 183 -125 0 c-69 0 -125 0
-125 0z"/>
<path d="M9314 2021 c-2 -2 -4 -85 -4 -183 l0 -179 93 2 c50 1 101 6 112 11
66 34 88 92 59 153 -21 46 -78 74 -146 75 l-48 0 0 64 0 63 -31 -1 c-17 -1
-32 -3 -35 -5z m181 -206 c30 -29 31 -49 5 -75 -15 -15 -33 -20 -70 -20 l-50
0 0 60 0 60 45 0 c35 0 52 -6 70 -25z"/>
<path d="M9670 1843 l0 -183 35 0 35 0 0 80 0 80 85 0 85 0 0 -80 0 -80 33 0
32 0 -2 182 -2 182 -32 0 -32 1 2 -72 2 -73 -85 0 -86 0 0 73 0 73 -35 -1 -35
0 0 -182z"/>
<path d="M10080 1843 l0 -183 90 0 c110 0 144 14 170 72 41 92 -31 168 -159
168 l-42 0 2 62 3 61 -32 1 -32 1 0 -182z m178 -19 c26 -18 29 -60 5 -86 -12
-13 -30 -18 -69 -18 l-54 0 1 60 1 60 47 0 c26 0 56 -7 69 -16z"/>
<path d="M10410 1843 l0 -183 35 0 35 0 0 183 0 184 -35 -1 -35 -1 0 -182z"/>
<path d="M10550 2022 c0 -3 6 -13 13 -21 7 -9 34 -45 59 -81 l46 -66 -55 -79
c-81 -120 -80 -115 -39 -115 32 0 39 6 84 70 l50 70 48 -70 c45 -66 50 -70 86
-70 l39 0 -42 58 c-22 31 -53 74 -67 95 l-25 38 56 83 c32 46 57 86 57 89 0 9
-72 0 -79 -10 -3 -5 -21 -33 -39 -61 l-34 -51 -42 62 c-39 56 -46 62 -79 63
-20 1 -37 -1 -37 -4z"/>
<path d="M5591 1430 c-82 -20 -126 -87 -125 -191 1 -128 76 -200 194 -186 58
7 95 29 116 70 13 25 14 31 2 38 -25 16 -49 9 -75 -21 -19 -23 -33 -30 -62
-30 -71 0 -118 65 -106 147 9 65 23 89 59 108 28 15 38 16 69 6 21 -7 42 -22
48 -33 8 -15 17 -18 37 -13 41 10 45 19 21 48 -38 50 -112 73 -178 57z"/>
<path d="M6677 1429 c-54 -13 -85 -36 -109 -83 -52 -102 -17 -235 74 -282 56
-29 171 -11 209 33 39 44 51 84 47 158 -5 98 -38 148 -111 170 -56 17 -56 17
-110 4z m110 -81 c52 -48 53 -160 3 -210 -51 -50 -127 -32 -156 38 -55 131 60
260 153 172z"/>
<path d="M4340 1424 c0 -1 29 -63 65 -139 36 -75 65 -138 65 -140 0 -13 -36
-35 -56 -35 -20 0 -24 -5 -24 -31 0 -32 0 -32 46 -26 26 3 54 13 64 23 13 13
170 336 170 349 0 0 -17 -1 -39 -3 -38 -4 -39 -5 -78 -94 -21 -49 -43 -90 -48
-90 -5 0 -27 41 -48 90 -38 90 -39 90 -78 94 -21 2 -39 3 -39 2z"/>
<path d="M4730 1347 c0 -129 46 -176 161 -165 l49 5 0 -66 0 -66 35 0 35 0 0
185 0 186 -35 -4 -35 -4 0 -83 c0 -91 -3 -95 -66 -95 -55 0 -74 27 -74 109 l0
69 -35 4 -35 4 0 -79z"/>
<path d="M5845 1415 c-11 -38 -2 -45 57 -45 l58 0 0 -157 0 -158 35 0 35 0 0
158 0 157 60 0 c59 0 60 1 60 28 l0 27 -151 0 c-93 0 -153 -4 -154 -10z"/>
<path d="M6220 1240 l0 -185 35 -1 35 -1 0 186 0 186 -35 0 -35 0 0 -185z"/>
<path d="M6364 1349 c-35 -43 -64 -85 -64 -94 0 -9 31 -57 70 -107 66 -87 71
-91 110 -92 22 0 40 0 40 2 0 2 -34 46 -76 99 -53 66 -74 100 -68 109 5 6 37
45 70 86 l62 74 -40 -1 c-38 0 -44 -5 -104 -76z"/>
<path d="M6980 1243 l0 -182 88 -3 c97 -4 141 7 166 43 25 36 21 95 -9 125
l-25 25 20 26 c28 36 25 77 -7 113 -27 30 -30 31 -131 33 l-102 2 0 -182z
m168 111 c48 -33 16 -84 -54 -84 l-44 0 0 50 0 50 38 0 c21 0 48 -7 60 -16z
m25 -166 c8 -12 7 -24 -1 -42 -10 -23 -17 -26 -67 -26 l-55 0 0 45 0 46 56 -3
c40 -2 60 -8 67 -20z"/>
<path d="M5210 1417 c0 -2 -29 -83 -65 -181 -36 -98 -65 -179 -65 -180 0 -1
17 -1 38 -1 34 1 38 4 46 38 l10 37 78 0 c66 0 80 -3 84 -17 18 -56 21 -59 56
-55 l35 4 -65 179 -65 179 -44 0 c-23 0 -43 -1 -43 -3z m74 -145 l25 -72 -54
0 -54 0 9 28 c20 67 42 123 46 119 2 -2 15 -36 28 -75z"/>
</g>
</svg>
